solid OpenSCAD_Model
  facet normal -1 0 0
    outer loop
      vertex -10.25 -38.5 -10
      vertex -10.25 -38.5 10
      vertex -10.25 38.5 -10
    endloop
  endfacet
  facet normal -1 0 0
    outer loop
      vertex -10.25 38.5 -10
      vertex -10.25 -38.5 10
      vertex -10.25 38.5 10
    endloop
  endfacet
  facet normal 0 -1 0
    outer loop
      vertex -10.25 -38.5 10
      vertex -10.25 -38.5 -10
      vertex 10.25 -38.5 -10
    endloop
  endfacet
  facet normal 0 -1 0
    outer loop
      vertex -3 -38.5 5
      vertex -10.25 -38.5 10
      vertex 10.25 -38.5 -10
    endloop
  endfacet
  facet normal 0 -1 0
    outer loop
      vertex 10.25 -38.5 10
      vertex 3 -38.5 10
      vertex 10.25 -38.5 -10
    endloop
  endfacet
  facet normal 0 -1 0
    outer loop
      vertex 3 -38.5 10
      vertex 3 -38.5 5
      vertex 10.25 -38.5 -10
    endloop
  endfacet
  facet normal 0 -1 0
    outer loop
      vertex 3 -38.5 5
      vertex -3 -38.5 5
      vertex 10.25 -38.5 -10
    endloop
  endfacet
  facet normal 0 -1 0
    outer loop
      vertex -3 -38.5 5
      vertex -3 -38.5 10
      vertex -10.25 -38.5 10
    endloop
  endfacet
  facet normal 0 0 -1
    outer loop
      vertex 3 -36.3 -10
      vertex 10.25 -38.5 -10
      vertex -3 -36.3 -10
    endloop
  endfacet
  facet normal 0 0 -1
    outer loop
      vertex -3 36.3 -10
      vertex -10.25 38.5 -10
      vertex 10.25 38.5 -10
    endloop
  endfacet
  facet normal 0 0 -1
    outer loop
      vertex -10.25 -38.5 -10
      vertex -10.25 38.5 -10
      vertex -6.25 -5 -10
    endloop
  endfacet
  facet normal 0 0 -1
    outer loop
      vertex -10.25 -38.5 -10
      vertex -6.25 -5 -10
      vertex -6.25 -33.5 -10
    endloop
  endfacet
  facet normal 0 0 -1
    outer loop
      vertex 3 -33.5 -10
      vertex 10.25 -38.5 -10
      vertex 3 -36.3 -10
    endloop
  endfacet
  facet normal 0 0 -1
    outer loop
      vertex -10.25 -38.5 -10
      vertex -6.25 -33.5 -10
      vertex -3 -36.3 -10
    endloop
  endfacet
  facet normal 0 0 -1
    outer loop
      vertex -10.25 -38.5 -10
      vertex -3 -36.3 -10
      vertex 10.25 -38.5 -10
    endloop
  endfacet
  facet normal 0 0 -1
    outer loop
      vertex 6.25 -5 -10
      vertex 10.25 -38.5 -10
      vertex 6.25 -33.5 -10
    endloop
  endfacet
  facet normal 0 0 -1
    outer loop
      vertex 3 -33.5 -10
      vertex 6.25 -33.5 -10
      vertex 10.25 -38.5 -10
    endloop
  endfacet
  facet normal 0 0 -1
    outer loop
      vertex 10.25 -38.5 -10
      vertex 6.25 -5 -10
      vertex 10.25 38.5 -10
    endloop
  endfacet
  facet normal 0 0 -1
    outer loop
      vertex -6.25 -5 -10
      vertex -10.25 38.5 -10
      vertex -6.25 5 -10
    endloop
  endfacet
  facet normal 0 0 -1
    outer loop
      vertex -3 -36.3 -10
      vertex -6.25 -33.5 -10
      vertex -3 -33.5 -10
    endloop
  endfacet
  facet normal 0 0 -1
    outer loop
      vertex -3 36.3 -10
      vertex 10.25 38.5 -10
      vertex 3 36.3 -10
    endloop
  endfacet
  facet normal 0 0 -1
    outer loop
      vertex 6.25 -5 -10
      vertex 6.25 5 -10
      vertex 10.25 38.5 -10
    endloop
  endfacet
  facet normal 0 0 -1
    outer loop
      vertex 6.25 5 -10
      vertex 6.25 33.5 -10
      vertex 10.25 38.5 -10
    endloop
  endfacet
  facet normal 0 0 -1
    outer loop
      vertex 6.25 33.5 -10
      vertex 3 33.5 -10
      vertex 10.25 38.5 -10
    endloop
  endfacet
  facet normal 0 0 -1
    outer loop
      vertex 3 33.5 -10
      vertex 3 36.3 -10
      vertex 10.25 38.5 -10
    endloop
  endfacet
  facet normal 0 0 -1
    outer loop
      vertex -6.25 33.5 -10
      vertex -10.25 38.5 -10
      vertex -3 36.3 -10
    endloop
  endfacet
  facet normal 0 0 -1
    outer loop
      vertex -3 33.5 -10
      vertex -6.25 33.5 -10
      vertex -3 36.3 -10
    endloop
  endfacet
  facet normal 0 0 -1
    outer loop
      vertex 6.25 5 -10
      vertex 6.25 -5 -10
      vertex -6.25 5 -10
    endloop
  endfacet
  facet normal 0 0 -1
    outer loop
      vertex -6.25 -5 -10
      vertex -6.25 5 -10
      vertex 6.25 -5 -10
    endloop
  endfacet
  facet normal 0 0 -1
    outer loop
      vertex -6.25 5 -10
      vertex -10.25 38.5 -10
      vertex -6.25 33.5 -10
    endloop
  endfacet
  facet normal 0 1 0
    outer loop
      vertex -10.25 38.5 -10
      vertex -10.25 38.5 10
      vertex 10.25 38.5 -10
    endloop
  endfacet
  facet normal 0 1 0
    outer loop
      vertex -3 38.5 5
      vertex -10.25 38.5 10
      vertex -3 38.5 10
    endloop
  endfacet
  facet normal 0 1 0
    outer loop
      vertex 10.25 38.5 -10
      vertex -10.25 38.5 10
      vertex -3 38.5 5
    endloop
  endfacet
  facet normal 0 1 0
    outer loop
      vertex 10.25 38.5 -10
      vertex 3 38.5 5
      vertex 3 38.5 10
    endloop
  endfacet
  facet normal 0 1 0
    outer loop
      vertex 10.25 38.5 -10
      vertex 3 38.5 10
      vertex 10.25 38.5 10
    endloop
  endfacet
  facet normal 0 1 0
    outer loop
      vertex 3 38.5 5
      vertex 10.25 38.5 -10
      vertex -3 38.5 5
    endloop
  endfacet
  facet normal 0 0 1
    outer loop
      vertex -6.25 -33.5 10
      vertex -10.25 -38.5 10
      vertex -3 -38.5 10
    endloop
  endfacet
  facet normal 0 0 1
    outer loop
      vertex 3 -33.5 10
      vertex 3 -38.5 10
      vertex 6.25 -33.5 10
    endloop
  endfacet
  facet normal 0 0 1
    outer loop
      vertex -6.25 -5 10
      vertex 6.25 -5 10
      vertex -6.25 5 10
    endloop
  endfacet
  facet normal 0 0 1
    outer loop
      vertex -10.25 38.5 10
      vertex -10.25 -38.5 10
      vertex -6.25 -33.5 10
    endloop
  endfacet
  facet normal 0 0 1
    outer loop
      vertex -6.25 -5 10
      vertex -6.25 5 10
      vertex -10.25 38.5 10
    endloop
  endfacet
  facet normal 0 0 1
    outer loop
      vertex -10.25 38.5 10
      vertex -6.25 -33.5 10
      vertex -6.25 -5 10
    endloop
  endfacet
  facet normal 0 0 1
    outer loop
      vertex -3 33.5 10
      vertex -3 38.5 10
      vertex -10.25 38.5 10
    endloop
  endfacet
  facet normal 0 0 1
    outer loop
      vertex 10.25 -38.5 10
      vertex 6.25 -5 10
      vertex 6.25 -33.5 10
    endloop
  endfacet
  facet normal 0 0 1
    outer loop
      vertex 10.25 -38.5 10
      vertex 6.25 -33.5 10
      vertex 3 -38.5 10
    endloop
  endfacet
  facet normal 0 0 1
    outer loop
      vertex 10.25 38.5 10
      vertex 6.25 -5 10
      vertex 10.25 -38.5 10
    endloop
  endfacet
  facet normal 0 0 1
    outer loop
      vertex -6.25 5 10
      vertex -6.25 33.5 10
      vertex -10.25 38.5 10
    endloop
  endfacet
  facet normal 0 0 1
    outer loop
      vertex 10.25 38.5 10
      vertex 3 38.5 10
      vertex 6.25 33.5 10
    endloop
  endfacet
  facet normal 0 0 1
    outer loop
      vertex 10.25 38.5 10
      vertex 6.25 5 10
      vertex 6.25 -5 10
    endloop
  endfacet
  facet normal 0 0 1
    outer loop
      vertex 10.25 38.5 10
      vertex 6.25 33.5 10
      vertex 6.25 5 10
    endloop
  endfacet
  facet normal 0 0 1
    outer loop
      vertex -3 33.5 10
      vertex -10.25 38.5 10
      vertex -6.25 33.5 10
    endloop
  endfacet
  facet normal 0 0 1
    outer loop
      vertex 3 33.5 10
      vertex 6.25 33.5 10
      vertex 3 38.5 10
    endloop
  endfacet
  facet normal 0 0 1
    outer loop
      vertex -3 -33.5 10
      vertex -6.25 -33.5 10
      vertex -3 -38.5 10
    endloop
  endfacet
  facet normal 0 0 1
    outer loop
      vertex 6.25 5 10
      vertex -6.25 5 10
      vertex 6.25 -5 10
    endloop
  endfacet
  facet normal 1 0 0
    outer loop
      vertex -3 -36.3 5
      vertex -3 -36.3 -10
      vertex -3 -33.5 -10
    endloop
  endfacet
  facet normal 1 0 0
    outer loop
      vertex -3 -38.5 10
      vertex -3 -36.3 5
      vertex -3 -33.5 10
    endloop
  endfacet
  facet normal 1 0 0
    outer loop
      vertex -3 -33.5 10
      vertex -3 -36.3 5
      vertex -3 -33.5 -10
    endloop
  endfacet
  facet normal 1 0 0
    outer loop
      vertex -3 -38.5 5
      vertex -3 -36.3 5
      vertex -3 -38.5 10
    endloop
  endfacet
  facet normal 0 0 1
    outer loop
      vertex 3 -38.5 5
      vertex 3 -36.3 5
      vertex -3 -36.3 5
    endloop
  endfacet
  facet normal 0 0 1
    outer loop
      vertex -3 -38.5 5
      vertex 3 -38.5 5
      vertex -3 -36.3 5
    endloop
  endfacet
  facet normal -1 0 0
    outer loop
      vertex 3 -38.5 5
      vertex 3 -38.5 10
      vertex 3 -36.3 5
    endloop
  endfacet
  facet normal -1 0 0
    outer loop
      vertex 3 -33.5 10
      vertex 3 -33.5 -10
      vertex 3 -36.3 5
    endloop
  endfacet
  facet normal -1 0 0
    outer loop
      vertex 3 -33.5 10
      vertex 3 -36.3 5
      vertex 3 -38.5 10
    endloop
  endfacet
  facet normal -1 0 0
    outer loop
      vertex 3 -36.3 5
      vertex 3 -33.5 -10
      vertex 3 -36.3 -10
    endloop
  endfacet
  facet normal 1 0 0
    outer loop
      vertex 10.25 -38.5 10
      vertex 10.25 -38.5 -10
      vertex 10.25 38.5 -10
    endloop
  endfacet
  facet normal 1 0 0
    outer loop
      vertex 10.25 38.5 10
      vertex 10.25 -38.5 10
      vertex 10.25 38.5 -10
    endloop
  endfacet
  facet normal 1 0 0
    outer loop
      vertex -6.25 -5 -10
      vertex -6.25 -5 10
      vertex -6.25 -33.5 10
    endloop
  endfacet
  facet normal 1 0 0
    outer loop
      vertex -6.25 -33.5 -10
      vertex -6.25 -5 -10
      vertex -6.25 -33.5 10
    endloop
  endfacet
  facet normal 0 -1 0
    outer loop
      vertex 6.25 -5 -10
      vertex 6.25 -5 10
      vertex -6.25 -5 10
    endloop
  endfacet
  facet normal 0 -1 0
    outer loop
      vertex -6.25 -5 -10
      vertex 6.25 -5 -10
      vertex -6.25 -5 10
    endloop
  endfacet
  facet normal -1 0 0
    outer loop
      vertex 6.25 -5 10
      vertex 6.25 -5 -10
      vertex 6.25 -33.5 10
    endloop
  endfacet
  facet normal -1 0 0
    outer loop
      vertex 6.25 -33.5 10
      vertex 6.25 -5 -10
      vertex 6.25 -33.5 -10
    endloop
  endfacet
  facet normal 0 1 0
    outer loop
      vertex 6.25 -33.5 10
      vertex 6.25 -33.5 -10
      vertex 3 -33.5 10
    endloop
  endfacet
  facet normal 0 1 0
    outer loop
      vertex 3 -33.5 10
      vertex 6.25 -33.5 -10
      vertex 3 -33.5 -10
    endloop
  endfacet
  facet normal 0 1 0
    outer loop
      vertex 3 -36.3 5
      vertex 3 -36.3 -10
      vertex -3 -36.3 5
    endloop
  endfacet
  facet normal 0 1 0
    outer loop
      vertex -3 -36.3 5
      vertex 3 -36.3 -10
      vertex -3 -36.3 -10
    endloop
  endfacet
  facet normal 0 1 0
    outer loop
      vertex -3 -33.5 10
      vertex -3 -33.5 -10
      vertex -6.25 -33.5 10
    endloop
  endfacet
  facet normal 0 1 0
    outer loop
      vertex -6.25 -33.5 10
      vertex -3 -33.5 -10
      vertex -6.25 -33.5 -10
    endloop
  endfacet
  facet normal 1 0 0
    outer loop
      vertex -6.25 33.5 -10
      vertex -6.25 33.5 10
      vertex -6.25 5 10
    endloop
  endfacet
  facet normal 1 0 0
    outer loop
      vertex -6.25 5 -10
      vertex -6.25 33.5 -10
      vertex -6.25 5 10
    endloop
  endfacet
  facet normal 0 -1 0
    outer loop
      vertex -3 33.5 -10
      vertex -3 33.5 10
      vertex -6.25 33.5 10
    endloop
  endfacet
  facet normal 0 -1 0
    outer loop
      vertex -6.25 33.5 -10
      vertex -3 33.5 -10
      vertex -6.25 33.5 10
    endloop
  endfacet
  facet normal 1 0 0
    outer loop
      vertex -3 38.5 10
      vertex -3 36.3 5
      vertex -3 38.5 5
    endloop
  endfacet
  facet normal 1 0 0
    outer loop
      vertex -3 33.5 10
      vertex -3 36.3 5
      vertex -3 38.5 10
    endloop
  endfacet
  facet normal 1 0 0
    outer loop
      vertex -3 36.3 -10
      vertex -3 36.3 5
      vertex -3 33.5 10
    endloop
  endfacet
  facet normal 1 0 0
    outer loop
      vertex -3 33.5 -10
      vertex -3 36.3 -10
      vertex -3 33.5 10
    endloop
  endfacet
  facet normal 0 -1 0
    outer loop
      vertex 3 36.3 -10
      vertex 3 36.3 5
      vertex -3 36.3 5
    endloop
  endfacet
  facet normal 0 -1 0
    outer loop
      vertex -3 36.3 -10
      vertex 3 36.3 -10
      vertex -3 36.3 5
    endloop
  endfacet
  facet normal -1 0 0
    outer loop
      vertex 3 38.5 10
      vertex 3 38.5 5
      vertex 3 33.5 10
    endloop
  endfacet
  facet normal -1 0 0
    outer loop
      vertex 3 33.5 10
      vertex 3 38.5 5
      vertex 3 36.3 5
    endloop
  endfacet
  facet normal -1 0 0
    outer loop
      vertex 3 33.5 10
      vertex 3 36.3 5
      vertex 3 36.3 -10
    endloop
  endfacet
  facet normal -1 0 0
    outer loop
      vertex 3 33.5 10
      vertex 3 36.3 -10
      vertex 3 33.5 -10
    endloop
  endfacet
  facet normal 0 -1 0
    outer loop
      vertex 6.25 33.5 -10
      vertex 6.25 33.5 10
      vertex 3 33.5 10
    endloop
  endfacet
  facet normal 0 -1 0
    outer loop
      vertex 3 33.5 -10
      vertex 6.25 33.5 -10
      vertex 3 33.5 10
    endloop
  endfacet
  facet normal -1 0 0
    outer loop
      vertex 6.25 33.5 10
      vertex 6.25 33.5 -10
      vertex 6.25 5 10
    endloop
  endfacet
  facet normal -1 0 0
    outer loop
      vertex 6.25 5 10
      vertex 6.25 33.5 -10
      vertex 6.25 5 -10
    endloop
  endfacet
  facet normal 0 1 0
    outer loop
      vertex 6.25 5 10
      vertex 6.25 5 -10
      vertex -6.25 5 10
    endloop
  endfacet
  facet normal 0 1 0
    outer loop
      vertex -6.25 5 10
      vertex 6.25 5 -10
      vertex -6.25 5 -10
    endloop
  endfacet
  facet normal 0 0 1
    outer loop
      vertex 3 36.3 5
      vertex 3 38.5 5
      vertex -3 38.5 5
    endloop
  endfacet
  facet normal 0 0 1
    outer loop
      vertex -3 36.3 5
      vertex 3 36.3 5
      vertex -3 38.5 5
    endloop
  endfacet
endsolid OpenSCAD_Model
