solid OpenSCAD_Model
  facet normal -1 0 0
    outer loop
      vertex -60 -7.5 -7.5
      vertex -60 -7.5 7.5
      vertex -60 7.5 -7.5
    endloop
  endfacet
  facet normal -1 0 0
    outer loop
      vertex -60 7.5 -7.5
      vertex -60 -7.5 7.5
      vertex -60 7.5 7.5
    endloop
  endfacet
  facet normal 0 -1 0
    outer loop
      vertex -60 -7.5 7.5
      vertex -60 -7.5 -7.5
      vertex -45 -7.5 -7.5
    endloop
  endfacet
  facet normal 0 -1 0
    outer loop
      vertex -15 -7.5 -4.5
      vertex -60 -7.5 7.5
      vertex -45 -7.5 -4.5
    endloop
  endfacet
  facet normal 0 -1 0
    outer loop
      vertex -45 -7.5 -4.5
      vertex -60 -7.5 7.5
      vertex -45 -7.5 -7.5
    endloop
  endfacet
  facet normal 0 -1 0
    outer loop
      vertex -45 -7.5 4.5
      vertex -60 -7.5 7.5
      vertex -15 -7.5 -4.5
    endloop
  endfacet
  facet normal 0 -1 0
    outer loop
      vertex 60 -7.5 -7.5
      vertex -15 -7.5 -4.5
      vertex -15 -7.5 -7.5
    endloop
  endfacet
  facet normal 0 -1 0
    outer loop
      vertex -45 -7.5 4.5
      vertex -45 -7.5 7.5
      vertex -60 -7.5 7.5
    endloop
  endfacet
  facet normal 0 -1 0
    outer loop
      vertex 60 -7.5 7.5
      vertex -15 -7.5 7.5
      vertex 60 -7.5 -7.5
    endloop
  endfacet
  facet normal 0 -1 0
    outer loop
      vertex -15 -7.5 7.5
      vertex -15 -7.5 4.5
      vertex 60 -7.5 -7.5
    endloop
  endfacet
  facet normal 0 -1 0
    outer loop
      vertex 60 -7.5 -7.5
      vertex -45 -7.5 4.5
      vertex -15 -7.5 -4.5
    endloop
  endfacet
  facet normal 0 -1 0
    outer loop
      vertex -15 -7.5 4.5
      vertex -45 -7.5 4.5
      vertex 60 -7.5 -7.5
    endloop
  endfacet
  facet normal 0 0 -1
    outer loop
      vertex -60 -7.5 -7.5
      vertex -60 7.5 -7.5
      vertex -45 -7.5 -7.5
    endloop
  endfacet
  facet normal 0 0 -1
    outer loop
      vertex -45 -7.5 -7.5
      vertex -60 7.5 -7.5
      vertex -45 7.5 -7.5
    endloop
  endfacet
  facet normal 0 1 0
    outer loop
      vertex -60 7.5 -7.5
      vertex -60 7.5 7.5
      vertex -45 7.5 -7.5
    endloop
  endfacet
  facet normal 0 1 0
    outer loop
      vertex -45 7.5 4.5
      vertex -60 7.5 7.5
      vertex -45 7.5 7.5
    endloop
  endfacet
  facet normal 0 1 0
    outer loop
      vertex -45 7.5 -7.5
      vertex -60 7.5 7.5
      vertex -45 7.5 -4.5
    endloop
  endfacet
  facet normal 0 1 0
    outer loop
      vertex -15 7.5 4.5
      vertex -15 7.5 7.5
      vertex 60 7.5 7.5
    endloop
  endfacet
  facet normal 0 1 0
    outer loop
      vertex -15 7.5 -7.5
      vertex 60 7.5 7.5
      vertex 60 7.5 -7.5
    endloop
  endfacet
  facet normal 0 1 0
    outer loop
      vertex -15 7.5 -4.5
      vertex 60 7.5 7.5
      vertex -15 7.5 -7.5
    endloop
  endfacet
  facet normal 0 1 0
    outer loop
      vertex -45 7.5 4.5
      vertex -15 7.5 4.5
      vertex -45 7.5 -4.5
    endloop
  endfacet
  facet normal 0 1 0
    outer loop
      vertex -45 7.5 4.5
      vertex -45 7.5 -4.5
      vertex -60 7.5 7.5
    endloop
  endfacet
  facet normal 0 1 0
    outer loop
      vertex -45 7.5 -4.5
      vertex -15 7.5 4.5
      vertex 60 7.5 7.5
    endloop
  endfacet
  facet normal 0 1 0
    outer loop
      vertex -45 7.5 -4.5
      vertex 60 7.5 7.5
      vertex -15 7.5 -4.5
    endloop
  endfacet
  facet normal 0 0 1
    outer loop
      vertex -60 7.5 7.5
      vertex -60 -7.5 7.5
      vertex -45 -7.5 7.5
    endloop
  endfacet
  facet normal 0 0 1
    outer loop
      vertex -45 7.5 7.5
      vertex -60 7.5 7.5
      vertex -45 -7.5 7.5
    endloop
  endfacet
  facet normal 1 0 0
    outer loop
      vertex -45 7.5 4.5
      vertex -45 7.5 7.5
      vertex -45 -7.5 7.5
    endloop
  endfacet
  facet normal 1 0 0
    outer loop
      vertex -45 -7.5 4.5
      vertex -45 7.5 4.5
      vertex -45 -7.5 7.5
    endloop
  endfacet
  facet normal 0 0 1
    outer loop
      vertex -15 -7.5 4.5
      vertex -15 7.5 4.5
      vertex -45 7.5 4.5
    endloop
  endfacet
  facet normal 0 0 1
    outer loop
      vertex -45 -7.5 4.5
      vertex -15 -7.5 4.5
      vertex -45 7.5 4.5
    endloop
  endfacet
  facet normal -1 0 0
    outer loop
      vertex -15 7.5 7.5
      vertex -15 7.5 4.5
      vertex -15 -7.5 7.5
    endloop
  endfacet
  facet normal -1 0 0
    outer loop
      vertex -15 -7.5 7.5
      vertex -15 7.5 4.5
      vertex -15 -7.5 4.5
    endloop
  endfacet
  facet normal 0 0 1
    outer loop
      vertex -15 7.5 7.5
      vertex -15 -7.5 7.5
      vertex 60 -7.5 7.5
    endloop
  endfacet
  facet normal 0 0 1
    outer loop
      vertex 60 7.5 7.5
      vertex -15 7.5 7.5
      vertex 60 -7.5 7.5
    endloop
  endfacet
  facet normal 1 0 0
    outer loop
      vertex 60 -7.5 7.5
      vertex 60 -7.5 -7.5
      vertex 60 7.5 -7.5
    endloop
  endfacet
  facet normal 1 0 0
    outer loop
      vertex 60 7.5 7.5
      vertex 60 -7.5 7.5
      vertex 60 7.5 -7.5
    endloop
  endfacet
  facet normal 0 0 -1
    outer loop
      vertex -15 -7.5 -7.5
      vertex -15 7.5 -7.5
      vertex 60 -7.5 -7.5
    endloop
  endfacet
  facet normal 0 0 -1
    outer loop
      vertex 60 -7.5 -7.5
      vertex -15 7.5 -7.5
      vertex 60 7.5 -7.5
    endloop
  endfacet
  facet normal -1 0 0
    outer loop
      vertex -15 7.5 -4.5
      vertex -15 7.5 -7.5
      vertex -15 -7.5 -4.5
    endloop
  endfacet
  facet normal -1 0 0
    outer loop
      vertex -15 -7.5 -4.5
      vertex -15 7.5 -7.5
      vertex -15 -7.5 -7.5
    endloop
  endfacet
  facet normal 0 0 -1
    outer loop
      vertex -15 7.5 -4.5
      vertex -15 -7.5 -4.5
      vertex -45 7.5 -4.5
    endloop
  endfacet
  facet normal 0 0 -1
    outer loop
      vertex -45 7.5 -4.5
      vertex -15 -7.5 -4.5
      vertex -45 -7.5 -4.5
    endloop
  endfacet
  facet normal 1 0 0
    outer loop
      vertex -45 7.5 -7.5
      vertex -45 7.5 -4.5
      vertex -45 -7.5 -4.5
    endloop
  endfacet
  facet normal 1 0 0
    outer loop
      vertex -45 -7.5 -7.5
      vertex -45 7.5 -7.5
      vertex -45 -7.5 -4.5
    endloop
  endfacet
endsolid OpenSCAD_Model
