solid OpenSCAD_Model
  facet normal -1 0 0
    outer loop
      vertex -82.5 -20 -12.5
      vertex -82.5 -20 12.5
      vertex -82.5 20 -12.5
    endloop
  endfacet
  facet normal -1 0 0
    outer loop
      vertex -82.5 20 -12.5
      vertex -82.5 -20 12.5
      vertex -82.5 20 12.5
    endloop
  endfacet
  facet normal 0 -1 0
    outer loop
      vertex -50 -20 -5.5
      vertex -82.5 -20 -12.5
      vertex 66 -20 -12.5
    endloop
  endfacet
  facet normal 0 -1 0
    outer loop
      vertex 50 -20 -5.5
      vertex -50 -20 -5.5
      vertex 66 -20 -12.5
    endloop
  endfacet
  facet normal 0 -1 0
    outer loop
      vertex 82.5 -20 0.75
      vertex 50 -20 0.75
      vertex 82.5 -20 -7.4
    endloop
  endfacet
  facet normal 0 -1 0
    outer loop
      vertex 66 -20 -7.4
      vertex 50 -20 -5.5
      vertex 66 -20 -12.5
    endloop
  endfacet
  facet normal 0 -1 0
    outer loop
      vertex -82.5 -20 12.5
      vertex -82.5 -20 -12.5
      vertex -50 -20 -5.5
    endloop
  endfacet
  facet normal 0 -1 0
    outer loop
      vertex 50 -20 0.75
      vertex 66 -20 -7.4
      vertex 82.5 -20 -7.4
    endloop
  endfacet
  facet normal 0 -1 0
    outer loop
      vertex 50 -20 0.75
      vertex 50 -20 -5.5
      vertex 66 -20 -7.4
    endloop
  endfacet
  facet normal 0 -1 0
    outer loop
      vertex -50 -20 -5.5
      vertex -50 -20 12.5
      vertex -82.5 -20 12.5
    endloop
  endfacet
  facet normal 0 0 -1
    outer loop
      vertex -45 15 -12.5
      vertex -82.5 20 -12.5
      vertex 66 20 -12.5
    endloop
  endfacet
  facet normal 0 0 -1
    outer loop
      vertex -5 15 -12.5
      vertex -45 15 -12.5
      vertex 66 20 -12.5
    endloop
  endfacet
  facet normal 0 0 -1
    outer loop
      vertex -82.5 -20 -12.5
      vertex -82.5 20 -12.5
      vertex -45 -15 -12.5
    endloop
  endfacet
  facet normal 0 0 -1
    outer loop
      vertex -82.5 -20 -12.5
      vertex -45 -15 -12.5
      vertex 66 -20 -12.5
    endloop
  endfacet
  facet normal 0 0 -1
    outer loop
      vertex -45 -15 -12.5
      vertex -5 -15 -12.5
      vertex 66 -20 -12.5
    endloop
  endfacet
  facet normal 0 0 -1
    outer loop
      vertex 5 -15 -12.5
      vertex -5 15 -12.5
      vertex 5 15 -12.5
    endloop
  endfacet
  facet normal 0 0 -1
    outer loop
      vertex 5 15 -12.5
      vertex -5 15 -12.5
      vertex 66 20 -12.5
    endloop
  endfacet
  facet normal 0 0 -1
    outer loop
      vertex 45 15 -12.5
      vertex 5 15 -12.5
      vertex 66 20 -12.5
    endloop
  endfacet
  facet normal 0 0 -1
    outer loop
      vertex 45 15 -12.5
      vertex 66 -20 -12.5
      vertex 45 -15 -12.5
    endloop
  endfacet
  facet normal 0 0 -1
    outer loop
      vertex -5 -15 -12.5
      vertex 5 -15 -12.5
      vertex 66 -20 -12.5
    endloop
  endfacet
  facet normal 0 0 -1
    outer loop
      vertex -5 15 -12.5
      vertex 5 -15 -12.5
      vertex -5 -15 -12.5
    endloop
  endfacet
  facet normal 0 0 -1
    outer loop
      vertex 5 -15 -12.5
      vertex 45 -15 -12.5
      vertex 66 -20 -12.5
    endloop
  endfacet
  facet normal 0 0 -1
    outer loop
      vertex 66 -20 -12.5
      vertex 45 15 -12.5
      vertex 66 20 -12.5
    endloop
  endfacet
  facet normal 0 0 -1
    outer loop
      vertex -45 -15 -12.5
      vertex -82.5 20 -12.5
      vertex -45 15 -12.5
    endloop
  endfacet
  facet normal 0 1 0
    outer loop
      vertex 50 20 -5.5
      vertex 66 20 -12.5
      vertex -50 20 -5.5
    endloop
  endfacet
  facet normal 0 1 0
    outer loop
      vertex -82.5 20 -12.5
      vertex -82.5 20 12.5
      vertex -50 20 -5.5
    endloop
  endfacet
  facet normal 0 1 0
    outer loop
      vertex -82.5 20 -12.5
      vertex -50 20 -5.5
      vertex 66 20 -12.5
    endloop
  endfacet
  facet normal 0 1 0
    outer loop
      vertex 66 20 -7.4
      vertex 82.5 20 0.75
      vertex 82.5 20 -7.4
    endloop
  endfacet
  facet normal 0 1 0
    outer loop
      vertex 66 20 -12.5
      vertex 50 20 -5.5
      vertex 50 20 0.75
    endloop
  endfacet
  facet normal 0 1 0
    outer loop
      vertex 66 20 -7.4
      vertex 50 20 0.75
      vertex 82.5 20 0.75
    endloop
  endfacet
  facet normal 0 1 0
    outer loop
      vertex 66 20 -12.5
      vertex 50 20 0.75
      vertex 66 20 -7.4
    endloop
  endfacet
  facet normal 0 1 0
    outer loop
      vertex -50 20 -5.5
      vertex -82.5 20 12.5
      vertex -50 20 12.5
    endloop
  endfacet
  facet normal 0 0 1
    outer loop
      vertex -82.5 20 12.5
      vertex -82.5 -20 12.5
      vertex -50 -20 12.5
    endloop
  endfacet
  facet normal 0 0 1
    outer loop
      vertex -50 20 12.5
      vertex -82.5 20 12.5
      vertex -50 -20 12.5
    endloop
  endfacet
  facet normal 1 0 0
    outer loop
      vertex -50 20 -5.5
      vertex -50 20 12.5
      vertex -50 -20 12.5
    endloop
  endfacet
  facet normal 1 0 0
    outer loop
      vertex -50 -20 -5.5
      vertex -50 20 -5.5
      vertex -50 -20 12.5
    endloop
  endfacet
  facet normal 0 0 1
    outer loop
      vertex -5 15 -5.5
      vertex 50 20 -5.5
      vertex -50 20 -5.5
    endloop
  endfacet
  facet normal 0 0 1
    outer loop
      vertex 45 -15 -5.5
      vertex 5 -15 -5.5
      vertex 50 -20 -5.5
    endloop
  endfacet
  facet normal 0 0 1
    outer loop
      vertex -50 -20 -5.5
      vertex -45 15 -5.5
      vertex -50 20 -5.5
    endloop
  endfacet
  facet normal 0 0 1
    outer loop
      vertex 5 -15 -5.5
      vertex 5 15 -5.5
      vertex -5 15 -5.5
    endloop
  endfacet
  facet normal 0 0 1
    outer loop
      vertex 5 15 -5.5
      vertex 50 20 -5.5
      vertex -5 15 -5.5
    endloop
  endfacet
  facet normal 0 0 1
    outer loop
      vertex -50 -20 -5.5
      vertex 50 -20 -5.5
      vertex -5 -15 -5.5
    endloop
  endfacet
  facet normal 0 0 1
    outer loop
      vertex -50 -20 -5.5
      vertex -45 -15 -5.5
      vertex -45 15 -5.5
    endloop
  endfacet
  facet normal 0 0 1
    outer loop
      vertex -50 -20 -5.5
      vertex -5 -15 -5.5
      vertex -45 -15 -5.5
    endloop
  endfacet
  facet normal 0 0 1
    outer loop
      vertex 45 15 -5.5
      vertex 50 20 -5.5
      vertex 5 15 -5.5
    endloop
  endfacet
  facet normal 0 0 1
    outer loop
      vertex 50 -20 -5.5
      vertex 50 20 -5.5
      vertex 45 15 -5.5
    endloop
  endfacet
  facet normal 0 0 1
    outer loop
      vertex 50 -20 -5.5
      vertex 45 15 -5.5
      vertex 45 -15 -5.5
    endloop
  endfacet
  facet normal 0 0 1
    outer loop
      vertex -5 -15 -5.5
      vertex 50 -20 -5.5
      vertex 5 -15 -5.5
    endloop
  endfacet
  facet normal 0 0 1
    outer loop
      vertex -45 15 -5.5
      vertex -5 15 -5.5
      vertex -50 20 -5.5
    endloop
  endfacet
  facet normal 0 0 1
    outer loop
      vertex -5 15 -5.5
      vertex -5 -15 -5.5
      vertex 5 -15 -5.5
    endloop
  endfacet
  facet normal -1 0 0
    outer loop
      vertex 50 20 0.75
      vertex 50 20 -5.5
      vertex 50 -20 0.75
    endloop
  endfacet
  facet normal -1 0 0
    outer loop
      vertex 50 -20 0.75
      vertex 50 20 -5.5
      vertex 50 -20 -5.5
    endloop
  endfacet
  facet normal 0 0 1
    outer loop
      vertex 82.5 -20 0.75
      vertex 82.5 20 0.75
      vertex 50 20 0.75
    endloop
  endfacet
  facet normal 0 0 1
    outer loop
      vertex 50 -20 0.75
      vertex 82.5 -20 0.75
      vertex 50 20 0.75
    endloop
  endfacet
  facet normal 1 0 0
    outer loop
      vertex 82.5 -20 0.75
      vertex 82.5 -20 -7.4
      vertex 82.5 20 -7.4
    endloop
  endfacet
  facet normal 1 0 0
    outer loop
      vertex 82.5 20 0.75
      vertex 82.5 -20 0.75
      vertex 82.5 20 -7.4
    endloop
  endfacet
  facet normal 0 0 -1
    outer loop
      vertex 82.5 20 -7.4
      vertex 82.5 -20 -7.4
      vertex 66 20 -7.4
    endloop
  endfacet
  facet normal 0 0 -1
    outer loop
      vertex 66 20 -7.4
      vertex 82.5 -20 -7.4
      vertex 66 -20 -7.4
    endloop
  endfacet
  facet normal 1 0 0
    outer loop
      vertex 66 20 -12.5
      vertex 66 20 -7.4
      vertex 66 -20 -7.4
    endloop
  endfacet
  facet normal 1 0 0
    outer loop
      vertex 66 -20 -12.5
      vertex 66 20 -12.5
      vertex 66 -20 -7.4
    endloop
  endfacet
  facet normal 1 0 0
    outer loop
      vertex -45 15 -12.5
      vertex -45 15 -5.5
      vertex -45 -15 -5.5
    endloop
  endfacet
  facet normal 1 0 0
    outer loop
      vertex -45 -15 -12.5
      vertex -45 15 -12.5
      vertex -45 -15 -5.5
    endloop
  endfacet
  facet normal 0 -1 0
    outer loop
      vertex -5 15 -12.5
      vertex -5 15 -5.5
      vertex -45 15 -5.5
    endloop
  endfacet
  facet normal 0 -1 0
    outer loop
      vertex -45 15 -12.5
      vertex -5 15 -12.5
      vertex -45 15 -5.5
    endloop
  endfacet
  facet normal -1 0 0
    outer loop
      vertex -5 15 -5.5
      vertex -5 15 -12.5
      vertex -5 -15 -5.5
    endloop
  endfacet
  facet normal -1 0 0
    outer loop
      vertex -5 -15 -5.5
      vertex -5 15 -12.5
      vertex -5 -15 -12.5
    endloop
  endfacet
  facet normal 0 1 0
    outer loop
      vertex -5 -15 -5.5
      vertex -5 -15 -12.5
      vertex -45 -15 -5.5
    endloop
  endfacet
  facet normal 0 1 0
    outer loop
      vertex -45 -15 -5.5
      vertex -5 -15 -12.5
      vertex -45 -15 -12.5
    endloop
  endfacet
  facet normal 1 0 0
    outer loop
      vertex 5 15 -12.5
      vertex 5 15 -5.5
      vertex 5 -15 -5.5
    endloop
  endfacet
  facet normal 1 0 0
    outer loop
      vertex 5 -15 -12.5
      vertex 5 15 -12.5
      vertex 5 -15 -5.5
    endloop
  endfacet
  facet normal 0 -1 0
    outer loop
      vertex 45 15 -12.5
      vertex 45 15 -5.5
      vertex 5 15 -5.5
    endloop
  endfacet
  facet normal 0 -1 0
    outer loop
      vertex 5 15 -12.5
      vertex 45 15 -12.5
      vertex 5 15 -5.5
    endloop
  endfacet
  facet normal -1 0 0
    outer loop
      vertex 45 15 -5.5
      vertex 45 15 -12.5
      vertex 45 -15 -5.5
    endloop
  endfacet
  facet normal -1 0 0
    outer loop
      vertex 45 -15 -5.5
      vertex 45 15 -12.5
      vertex 45 -15 -12.5
    endloop
  endfacet
  facet normal 0 1 0
    outer loop
      vertex 45 -15 -5.5
      vertex 45 -15 -12.5
      vertex 5 -15 -5.5
    endloop
  endfacet
  facet normal 0 1 0
    outer loop
      vertex 5 -15 -5.5
      vertex 45 -15 -12.5
      vertex 5 -15 -12.5
    endloop
  endfacet
endsolid OpenSCAD_Model
