solid OpenSCAD_Model
  facet normal -1 0 0
    outer loop
      vertex -35 -20.35 -9
      vertex -35 -20.35 9
      vertex -35 -16.05 -9
    endloop
  endfacet
  facet normal -1 0 0
    outer loop
      vertex -35 -16.05 -9
      vertex -35 -20.35 9
      vertex -35 -16.05 9
    endloop
  endfacet
  facet normal 0 -1 0
    outer loop
      vertex -35 -20.35 9
      vertex -35 -20.35 -9
      vertex -21 -20.35 -9
    endloop
  endfacet
  facet normal 0 -1 0
    outer loop
      vertex -22.5 -20.35 -4
      vertex -35 -20.35 9
      vertex -21 -20.35 -9
    endloop
  endfacet
  facet normal 0 -1 0
    outer loop
      vertex -21 -20.35 -4
      vertex -22.5 -20.35 -4
      vertex -21 -20.35 -9
    endloop
  endfacet
  facet normal 0 -1 0
    outer loop
      vertex -21 -20.35 4
      vertex -35 -20.35 9
      vertex -22.5 -20.35 4
    endloop
  endfacet
  facet normal 0 -1 0
    outer loop
      vertex -21 -20.35 9
      vertex -35 -20.35 9
      vertex -21 -20.35 4
    endloop
  endfacet
  facet normal 0 -1 0
    outer loop
      vertex -22.5 -20.35 -4
      vertex -22.5 -20.35 4
      vertex -35 -20.35 9
    endloop
  endfacet
  facet normal 0 0 -1
    outer loop
      vertex -35 -20.35 -9
      vertex -35 -16.05 -9
      vertex -21 -20.35 -9
    endloop
  endfacet
  facet normal 0 0 -1
    outer loop
      vertex -21 -20.35 -9
      vertex -35 -16.05 -9
      vertex -24 -16.05 -9
    endloop
  endfacet
  facet normal 0 0 -1
    outer loop
      vertex -21 -20.35 -9
      vertex -24 -16.05 -9
      vertex -24 -2.1 -9
    endloop
  endfacet
  facet normal 0 0 -1
    outer loop
      vertex -24 -2.1 -9
      vertex -35 -2.1 -9
      vertex -35 2.1 -9
    endloop
  endfacet
  facet normal 0 0 -1
    outer loop
      vertex -24 -2.1 -9
      vertex -35 2.1 -9
      vertex -24 2.1 -9
    endloop
  endfacet
  facet normal 0 0 -1
    outer loop
      vertex -24 -2.1 -9
      vertex -24 2.1 -9
      vertex -21 -20.35 -9
    endloop
  endfacet
  facet normal 0 0 -1
    outer loop
      vertex -24 2.1 -9
      vertex -24 16 -9
      vertex -21 -20.35 -9
    endloop
  endfacet
  facet normal 0 0 -1
    outer loop
      vertex -24 16 -9
      vertex -35 16 -9
      vertex -35 18 -9
    endloop
  endfacet
  facet normal 0 0 -1
    outer loop
      vertex -24 16 -9
      vertex -35 18 -9
      vertex 24 18 -9
    endloop
  endfacet
  facet normal 0 0 -1
    outer loop
      vertex -24 16 -9
      vertex 24 18 -9
      vertex -21 -18 -9
    endloop
  endfacet
  facet normal 0 0 -1
    outer loop
      vertex -24 16 -9
      vertex -21 -18 -9
      vertex -21 -20.35 -9
    endloop
  endfacet
  facet normal 0 0 -1
    outer loop
      vertex -21 -18 -9
      vertex 24 18 -9
      vertex 24 -18 -9
    endloop
  endfacet
  facet normal 0 1 0
    outer loop
      vertex -35 -16.05 -9
      vertex -35 -16.05 9
      vertex -24 -16.05 -9
    endloop
  endfacet
  facet normal 0 1 0
    outer loop
      vertex -24 -16.05 -9
      vertex -35 -16.05 9
      vertex -24 -16.05 9
    endloop
  endfacet
  facet normal 0 0 1
    outer loop
      vertex -35 -16.05 9
      vertex -35 -20.35 9
      vertex -21 -20.35 9
    endloop
  endfacet
  facet normal 0 0 1
    outer loop
      vertex 24 -18 9
      vertex -35 -16.05 9
      vertex -21 -18 9
    endloop
  endfacet
  facet normal 0 0 1
    outer loop
      vertex -21 -18 9
      vertex -35 -16.05 9
      vertex -21 -20.35 9
    endloop
  endfacet
  facet normal 0 0 1
    outer loop
      vertex -24 -16.05 9
      vertex -35 -16.05 9
      vertex 24 -18 9
    endloop
  endfacet
  facet normal 0 0 1
    outer loop
      vertex -35 18 9
      vertex -35 -16 9
      vertex 24 18 9
    endloop
  endfacet
  facet normal 0 0 1
    outer loop
      vertex 24 18 9
      vertex -24 -16 9
      vertex 24 -18 9
    endloop
  endfacet
  facet normal 0 0 1
    outer loop
      vertex -24 -16 9
      vertex -24 -16.05 9
      vertex 24 -18 9
    endloop
  endfacet
  facet normal 0 0 1
    outer loop
      vertex -35 -16 9
      vertex -24 -16 9
      vertex 24 18 9
    endloop
  endfacet
  facet normal 1 0 0
    outer loop
      vertex -21 -20.35 9
      vertex -21 -20.35 4
      vertex -21 -18 4
    endloop
  endfacet
  facet normal 1 0 0
    outer loop
      vertex -21 -18 9
      vertex -21 -20.35 9
      vertex -21 -18 4
    endloop
  endfacet
  facet normal 0 0 -1
    outer loop
      vertex 1.5 -5 4
      vertex 1.5 -12 4
      vertex -23 -5 4
    endloop
  endfacet
  facet normal 0 0 -1
    outer loop
      vertex 24 -15 4
      vertex 1.5 -12 4
      vertex 24 -12 4
    endloop
  endfacet
  facet normal 0 0 -1
    outer loop
      vertex -7.5 -15 4
      vertex 1.5 -12 4
      vertex 24 -15 4
    endloop
  endfacet
  facet normal 0 0 -1
    outer loop
      vertex -23 -5 4
      vertex 1.5 -12 4
      vertex -7.5 -15 4
    endloop
  endfacet
  facet normal 0 0 -1
    outer loop
      vertex -23 -5 4
      vertex -7.5 -15 4
      vertex -7.5 -18 4
    endloop
  endfacet
  facet normal 0 0 -1
    outer loop
      vertex -23 -5 4
      vertex -7.5 -18 4
      vertex -21 -18 4
    endloop
  endfacet
  facet normal 0 0 -1
    outer loop
      vertex -23 -5 4
      vertex -21 -18 4
      vertex -21 -20.35 4
    endloop
  endfacet
  facet normal 0 0 -1
    outer loop
      vertex -22.5 -15 4
      vertex -21 -20.35 4
      vertex -22.5 -20.35 4
    endloop
  endfacet
  facet normal 0 0 -1
    outer loop
      vertex -23 -5 4
      vertex -21 -20.35 4
      vertex -22.5 -15 4
    endloop
  endfacet
  facet normal 0 0 -1
    outer loop
      vertex -23 -15 4
      vertex -23 -5 4
      vertex -22.5 -15 4
    endloop
  endfacet
  facet normal 1 0 0
    outer loop
      vertex -22.5 -15 -4
      vertex -22.5 -15 4
      vertex -22.5 -20.35 4
    endloop
  endfacet
  facet normal 1 0 0
    outer loop
      vertex -22.5 -20.35 -4
      vertex -22.5 -15 -4
      vertex -22.5 -20.35 4
    endloop
  endfacet
  facet normal 0 0 1
    outer loop
      vertex -22.5 -15 -4
      vertex -22.5 -20.35 -4
      vertex -21 -20.35 -4
    endloop
  endfacet
  facet normal 0 0 1
    outer loop
      vertex -7.5 -18 -4
      vertex -22.5 -15 -4
      vertex -21 -18 -4
    endloop
  endfacet
  facet normal 0 0 1
    outer loop
      vertex -21 -18 -4
      vertex -22.5 -15 -4
      vertex -21 -20.35 -4
    endloop
  endfacet
  facet normal 0 0 1
    outer loop
      vertex -7.5 -15 -4
      vertex -22.5 -15 -4
      vertex -7.5 -18 -4
    endloop
  endfacet
  facet normal 0 0 1
    outer loop
      vertex 24 -12 -4
      vertex -22.5 -15 -4
      vertex -7.5 -15 -4
    endloop
  endfacet
  facet normal 0 0 1
    outer loop
      vertex 24 -12 -4
      vertex -7.5 -15 -4
      vertex 24 -15 -4
    endloop
  endfacet
  facet normal 0 0 1
    outer loop
      vertex 1.5 -12 -4
      vertex -22.5 -15 -4
      vertex 24 -12 -4
    endloop
  endfacet
  facet normal 0 0 1
    outer loop
      vertex 1.5 -5 -4
      vertex -22.5 -15 -4
      vertex 1.5 -12 -4
    endloop
  endfacet
  facet normal 0 0 1
    outer loop
      vertex -23 -5 -4
      vertex -22.5 -15 -4
      vertex 1.5 -5 -4
    endloop
  endfacet
  facet normal 0 0 1
    outer loop
      vertex -23 -15 -4
      vertex -22.5 -15 -4
      vertex -23 -5 -4
    endloop
  endfacet
  facet normal 1 0 0
    outer loop
      vertex -21 -20.35 -4
      vertex -21 -20.35 -9
      vertex -21 -18 -9
    endloop
  endfacet
  facet normal 1 0 0
    outer loop
      vertex -21 -18 -4
      vertex -21 -20.35 -4
      vertex -21 -18 -9
    endloop
  endfacet
  facet normal 0 -1 0
    outer loop
      vertex -21 -18 -4
      vertex -21 -18 -9
      vertex 24 -18 -9
    endloop
  endfacet
  facet normal 0 -1 0
    outer loop
      vertex -7.5 -18 -4
      vertex -21 -18 -4
      vertex 24 -18 -9
    endloop
  endfacet
  facet normal 0 -1 0
    outer loop
      vertex -21 -18 9
      vertex -21 -18 4
      vertex 24 -18 9
    endloop
  endfacet
  facet normal 0 -1 0
    outer loop
      vertex -21 -18 4
      vertex -7.5 -18 4
      vertex 24 -18 9
    endloop
  endfacet
  facet normal 0 -1 0
    outer loop
      vertex 24 -18 9
      vertex -7.5 -18 -4
      vertex 24 -18 -9
    endloop
  endfacet
  facet normal 0 -1 0
    outer loop
      vertex -7.5 -18 4
      vertex -7.5 -18 -4
      vertex 24 -18 9
    endloop
  endfacet
  facet normal 1 0 0
    outer loop
      vertex 24 -12 -6.5
      vertex 24 -18 -9
      vertex 24 18 -9
    endloop
  endfacet
  facet normal 1 0 0
    outer loop
      vertex 24 -18 9
      vertex 24 -18 -9
      vertex 24 -15 -4
    endloop
  endfacet
  facet normal 1 0 0
    outer loop
      vertex 24 -18 9
      vertex 24 -15 -4
      vertex 24 -15 4
    endloop
  endfacet
  facet normal 1 0 0
    outer loop
      vertex 24 -18 9
      vertex 24 -15 4
      vertex 24 -12 4
    endloop
  endfacet
  facet normal 1 0 0
    outer loop
      vertex 24 18 9
      vertex 24 -18 9
      vertex 24 -12 6.5
    endloop
  endfacet
  facet normal 1 0 0
    outer loop
      vertex 24 18 9
      vertex 24 12 6.5
      vertex 24 18 -9
    endloop
  endfacet
  facet normal 1 0 0
    outer loop
      vertex 24 18 9
      vertex 24 -12 6.5
      vertex 24 12 6.5
    endloop
  endfacet
  facet normal 1 0 0
    outer loop
      vertex 24 -12 -6.5
      vertex 24 -12 -4
      vertex 24 -15 -4
    endloop
  endfacet
  facet normal 1 0 0
    outer loop
      vertex 24 -15 -4
      vertex 24 -18 -9
      vertex 24 -12 -6.5
    endloop
  endfacet
  facet normal 1 0 0
    outer loop
      vertex 24 -12 4
      vertex 24 -12 6.5
      vertex 24 -18 9
    endloop
  endfacet
  facet normal 1 0 0
    outer loop
      vertex 24 12 6.5
      vertex 24 12 -6.5
      vertex 24 18 -9
    endloop
  endfacet
  facet normal 1 0 0
    outer loop
      vertex 24 12 -6.5
      vertex 24 -12 -6.5
      vertex 24 18 -9
    endloop
  endfacet
  facet normal 0 1 0
    outer loop
      vertex -35 18 -9
      vertex -35 18 9
      vertex 24 18 -9
    endloop
  endfacet
  facet normal 0 1 0
    outer loop
      vertex 24 18 -9
      vertex -35 18 9
      vertex 24 18 9
    endloop
  endfacet
  facet normal -1 0 0
    outer loop
      vertex -35 -16 7
      vertex -35 -16 9
      vertex -35 -2.1 7
    endloop
  endfacet
  facet normal -1 0 0
    outer loop
      vertex -35 -2.1 7
      vertex -35 -16 9
      vertex -35 18 9
    endloop
  endfacet
  facet normal -1 0 0
    outer loop
      vertex -35 16 7
      vertex -35 18 9
      vertex -35 18 -9
    endloop
  endfacet
  facet normal -1 0 0
    outer loop
      vertex -35 16 7
      vertex -35 18 -9
      vertex -35 16 -9
    endloop
  endfacet
  facet normal -1 0 0
    outer loop
      vertex -35 -2.1 7
      vertex -35 18 9
      vertex -35 2.1 7
    endloop
  endfacet
  facet normal -1 0 0
    outer loop
      vertex -35 2.1 -9
      vertex -35 -2.1 7
      vertex -35 2.1 7
    endloop
  endfacet
  facet normal -1 0 0
    outer loop
      vertex -35 18 9
      vertex -35 16 7
      vertex -35 2.1 7
    endloop
  endfacet
  facet normal -1 0 0
    outer loop
      vertex -35 -2.1 7
      vertex -35 2.1 -9
      vertex -35 -2.1 -9
    endloop
  endfacet
  facet normal 0 -1 0
    outer loop
      vertex -35 16 7
      vertex -35 16 -9
      vertex -24 16 -9
    endloop
  endfacet
  facet normal 0 -1 0
    outer loop
      vertex -24 16 7
      vertex -35 16 7
      vertex -24 16 -9
    endloop
  endfacet
  facet normal -1 0 0
    outer loop
      vertex -24 2.1 -9
      vertex -24 2.1 7
      vertex -24 16 -9
    endloop
  endfacet
  facet normal -1 0 0
    outer loop
      vertex -24 16 -9
      vertex -24 2.1 7
      vertex -24 16 7
    endloop
  endfacet
  facet normal 0 1 0
    outer loop
      vertex -35 2.1 -9
      vertex -35 2.1 7
      vertex -24 2.1 -9
    endloop
  endfacet
  facet normal 0 1 0
    outer loop
      vertex -24 2.1 -9
      vertex -35 2.1 7
      vertex -24 2.1 7
    endloop
  endfacet
  facet normal 0 -1 0
    outer loop
      vertex -35 -2.1 7
      vertex -35 -2.1 -9
      vertex -24 -2.1 -9
    endloop
  endfacet
  facet normal 0 -1 0
    outer loop
      vertex -24 -2.1 7
      vertex -35 -2.1 7
      vertex -24 -2.1 -9
    endloop
  endfacet
  facet normal -1 0 0
    outer loop
      vertex -24 -2.1 7
      vertex -24 -2.1 -9
      vertex -24 -16 7
    endloop
  endfacet
  facet normal -1 0 0
    outer loop
      vertex -24 -16.05 -9
      vertex -24 -16.05 9
      vertex -24 -16 7
    endloop
  endfacet
  facet normal -1 0 0
    outer loop
      vertex -24 -16.05 -9
      vertex -24 -16 7
      vertex -24 -2.1 -9
    endloop
  endfacet
  facet normal -1 0 0
    outer loop
      vertex -24 -16 7
      vertex -24 -16.05 9
      vertex -24 -16 9
    endloop
  endfacet
  facet normal 0 -1 0
    outer loop
      vertex -35 -16 9
      vertex -35 -16 7
      vertex -24 -16 7
    endloop
  endfacet
  facet normal 0 -1 0
    outer loop
      vertex -24 -16 9
      vertex -35 -16 9
      vertex -24 -16 7
    endloop
  endfacet
  facet normal 1 0 0
    outer loop
      vertex -23 -5 -4
      vertex -23 -5 4
      vertex -23 -15 4
    endloop
  endfacet
  facet normal 1 0 0
    outer loop
      vertex -23 -15 -4
      vertex -23 -5 -4
      vertex -23 -15 4
    endloop
  endfacet
  facet normal 0 -1 0
    outer loop
      vertex 1.5 -5 -4
      vertex 1.5 -5 4
      vertex -23 -5 4
    endloop
  endfacet
  facet normal 0 -1 0
    outer loop
      vertex -23 -5 -4
      vertex 1.5 -5 -4
      vertex -23 -5 4
    endloop
  endfacet
  facet normal 0 1 0
    outer loop
      vertex -22.5 -15 4
      vertex -22.5 -15 -4
      vertex -23 -15 4
    endloop
  endfacet
  facet normal 0 1 0
    outer loop
      vertex -23 -15 4
      vertex -22.5 -15 -4
      vertex -23 -15 -4
    endloop
  endfacet
  facet normal -1 0 0
    outer loop
      vertex -7.5 -15 4
      vertex -7.5 -15 -4
      vertex -7.5 -18 4
    endloop
  endfacet
  facet normal -1 0 0
    outer loop
      vertex -7.5 -18 4
      vertex -7.5 -15 -4
      vertex -7.5 -18 -4
    endloop
  endfacet
  facet normal 0 1 0
    outer loop
      vertex 24 -15 4
      vertex 24 -15 -4
      vertex -7.5 -15 4
    endloop
  endfacet
  facet normal 0 1 0
    outer loop
      vertex -7.5 -15 4
      vertex 24 -15 -4
      vertex -7.5 -15 -4
    endloop
  endfacet
  facet normal 0 1 0
    outer loop
      vertex 24 -12 6.5
      vertex 24 -12 4
      vertex 1.5 -12 6.5
    endloop
  endfacet
  facet normal 0 1 0
    outer loop
      vertex 1.5 -12 6.5
      vertex 24 -12 4
      vertex 1.5 -12 4
    endloop
  endfacet
  facet normal 1 0 0
    outer loop
      vertex 1.5 -5 4
      vertex 1.5 12 6.5
      vertex 1.5 -12 6.5
    endloop
  endfacet
  facet normal 1 0 0
    outer loop
      vertex 1.5 -5 4
      vertex 1.5 -5 -4
      vertex 1.5 12 -6.5
    endloop
  endfacet
  facet normal 1 0 0
    outer loop
      vertex 1.5 12 -6.5
      vertex 1.5 12 6.5
      vertex 1.5 -5 4
    endloop
  endfacet
  facet normal 1 0 0
    outer loop
      vertex 1.5 -12 -4
      vertex 1.5 12 -6.5
      vertex 1.5 -5 -4
    endloop
  endfacet
  facet normal 1 0 0
    outer loop
      vertex 1.5 -12 -6.5
      vertex 1.5 12 -6.5
      vertex 1.5 -12 -4
    endloop
  endfacet
  facet normal 1 0 0
    outer loop
      vertex 1.5 -12 4
      vertex 1.5 -5 4
      vertex 1.5 -12 6.5
    endloop
  endfacet
  facet normal 0 1 0
    outer loop
      vertex 24 -12 -4
      vertex 24 -12 -6.5
      vertex 1.5 -12 -4
    endloop
  endfacet
  facet normal 0 1 0
    outer loop
      vertex 1.5 -12 -4
      vertex 24 -12 -6.5
      vertex 1.5 -12 -6.5
    endloop
  endfacet
  facet normal 0 0 1
    outer loop
      vertex 24 -12 -6.5
      vertex 24 12 -6.5
      vertex 1.5 12 -6.5
    endloop
  endfacet
  facet normal 0 0 1
    outer loop
      vertex 1.5 -12 -6.5
      vertex 24 -12 -6.5
      vertex 1.5 12 -6.5
    endloop
  endfacet
  facet normal 0 -1 0
    outer loop
      vertex 24 12 -6.5
      vertex 24 12 6.5
      vertex 1.5 12 6.5
    endloop
  endfacet
  facet normal 0 -1 0
    outer loop
      vertex 1.5 12 -6.5
      vertex 24 12 -6.5
      vertex 1.5 12 6.5
    endloop
  endfacet
  facet normal 0 0 -1
    outer loop
      vertex 24 12 6.5
      vertex 24 -12 6.5
      vertex 1.5 12 6.5
    endloop
  endfacet
  facet normal 0 0 -1
    outer loop
      vertex 1.5 12 6.5
      vertex 24 -12 6.5
      vertex 1.5 -12 6.5
    endloop
  endfacet
  facet normal 0 0 -1
    outer loop
      vertex -35 -16 7
      vertex -35 -2.1 7
      vertex -24 -16 7
    endloop
  endfacet
  facet normal 0 0 -1
    outer loop
      vertex -24 -16 7
      vertex -35 -2.1 7
      vertex -24 -2.1 7
    endloop
  endfacet
  facet normal 0 0 -1
    outer loop
      vertex -35 2.1 7
      vertex -35 16 7
      vertex -24 2.1 7
    endloop
  endfacet
  facet normal 0 0 -1
    outer loop
      vertex -24 2.1 7
      vertex -35 16 7
      vertex -24 16 7
    endloop
  endfacet
endsolid OpenSCAD_Model
